<?xml version="1.0" encoding="UTF-8"?>
<svg xmlns:xodm="http://www.corel.com/coreldraw/odm/2003" xmlns="http://www.w3.org/2000/svg" xmlns:xlink="http://www.w3.org/1999/xlink" version="1.1" id="Layer_1" x="0px" y="0px" viewBox="0 0 2500 2500" style="enable-background:new 0 0 2500 2500;" xml:space="preserve">
<style type="text/css">
	.st0{fill-rule:evenodd;clip-rule:evenodd;fill:#FF0000;}
	.st1{fill-rule:evenodd;clip-rule:evenodd;fill:url(#SVGID_1_);}
	.st2{fill-rule:evenodd;clip-rule:evenodd;fill:#FFFFFF;}
	.st3{fill-rule:evenodd;clip-rule:evenodd;fill:#BB461A;}
	.st4{fill-rule:evenodd;clip-rule:evenodd;fill:#652207;}
	.st5{fill-rule:evenodd;clip-rule:evenodd;fill:#BC471C;}
	.st6{fill-rule:evenodd;clip-rule:evenodd;fill:#EC793A;}
	.st7{fill-rule:evenodd;clip-rule:evenodd;fill:#CCCCCC;}
</style>
<g id="Layer_x0020_1">
	<g id="_2680769525760">
		<circle class="st0" cx="1250" cy="1250" r="1223"></circle>
		<path d="M1250,2500c-345,0-658-140-884-366S0,1595,0,1250s140-658,366-884S905,0,1250,0s658,140,884,366s366,539,366,884    s-140,658-366,884S1595,2500,1250,2500z M405,2095c216,216,515,350,845,350s629-134,845-350s350-515,350-845s-134-629-350-845    S1580,55,1250,55S621,189,405,405S55,920,55,1250S189,1879,405,2095z"></path>
		
			<radialGradient id="SVGID_1_" cx="1250" cy="6189.2417" r="260.9612" gradientTransform="matrix(1 0 0 -0.1411 0 2978.3269)" gradientUnits="userSpaceOnUse">
			<stop offset="0" style="stop-color:#E7321F"></stop>
			<stop offset="0.8118" style="stop-color:#F32F1A"></stop>
			<stop offset="1" style="stop-color:#FE2D16"></stop>
		</radialGradient>
		<ellipse class="st1" cx="1250" cy="2105" rx="570" ry="80"></ellipse>
		<path d="M1747,1659c-7-7-7-18,0-25s18-7,25,0l66,66c7,7,7,18,0,25s-18,7-25,0L1747,1659z"></path>
		<path class="st2" d="M1925,1672c76,0,138,62,138,138s-62,138-138,138c-6,0-11,0-17-1c1,6,1,12,1,19c0,76-62,138-138,138    s-138-81-138-138s24-81,49-106l-73-82l145-131l74,66c25-25,59-40,97-40V1672z"></path>
		<path d="M1925,1654c43,0,82,17,110,46c28,28,46,67,46,110s-17,82-46,110c-28,28-66,45-108,45l0,0c0,43-17,82-46,110    c-28,28-67,46-110,46c-40,0-77-20-104-47c-31-31-51-73-51-108c0-55,20-82,42-106l-62-70c-6-7-6-18,2-25l144-131c7-6,17-6,23,0l0,0    l62,55c11-9,24-17,38-23c18-8,38-12,59-12H1925z M2010,1724c-22-22-52-35-85-35c-16,0-32,3-46,9s-27,15-38,25c-6,7-17,8-25,1    l-62-55l-120,109l61,69c7,7,7,18,0,24l-1,1c-22,22-43,43-43,93c0,26,16,59,41,84c21,21,49,37,80,37c33,0,63-13,85-35s35-52,35-85    c0-3,0-6,0-8c0-3,0-5-1-7c0-2,0-4,0-5c1-10,10-16,19-15c3,0,5,1,7,1s4,0,7,0c33,0,63-13,85-35s35-52,35-85s-13-63-35-85L2010,1724    z"></path>
		<path class="st3" d="M640,1367c0,0,57,93,97,112c41,20,69,33,127,71s109,115,136,143c26,29,58,108,152,171s174,58,198,52    s117-14,271-150c154-135,263-305,272-409s-2-182-114-287s-326-337-326-337l-73-84L640,1367z"></path>
		<path d="M663,1370c16,25,55,80,82,94c20,10,38,18,58,29s42,24,71,43c45,29,85,80,114,116c10,12,18,23,25,30c8,9,16,21,26,36    c23,36,58,88,123,132c35,23,68,37,96,44c43,11,76,9,89,6c2-1,5-1,8-2c31-6,118-23,255-144c75-66,139-140,185-210    c47-71,77-138,81-188s4-93-11-136s-44-87-98-137c-113-106-326-338-326-338l-62-70l-716,696V1370z M730,1495    c-45-22-104-119-105-119c-4-7-3-16,3-22l735-715c6-5,8-8,17,2l86,79c1,1,213,232,325,337c58,55,90,103,107,151c17,49,17,96,13,150    c-5,56-36,128-86,204c-48,73-114,149-191,217c-144,127-237,145-271,152c-3,1-5,1-7,1c-16,4-55,7-106-6c-32-8-68-23-106-49    c-71-47-108-103-133-142c-9-13-16-25-22-32c-7-8-16-19-26-32c-27-34-66-82-106-108c-29-19-50-31-69-42c-19-10-36-18-56-28    L730,1495z"></path>
		<path class="st4" d="M613,1376c0,0,83,84,124,104s69,33,127,71s109,115,136,143c26,29,58,108,152,171s126,63,198,52    c72-10,174-75,174-75c-232,42-390-211-513-349C946,1419,865,1373,613,1376z"></path>
		<path d="M656,1393c27,25,66,60,89,71c20,10,38,18,58,29s42,24,71,43c45,29,85,80,114,116c10,12,18,23,25,30c8,9,16,21,26,36    c23,36,58,88,123,132c45,30,75,45,101,51s51,3,85-1c32-5,70-20,102-36c-166-13-289-164-391-287c-21-26-41-50-60-72    c-31-35-65-63-121-82c-51-17-120-28-220-29L656,1393z M729,1495c-43-21-129-107-129-107c-3-3-5-7-5-12c0-10,8-18,17-18    c128-2,213,10,275,31c63,22,102,53,136,92c20,22,40,47,61,73c111,135,250,304,435,271c7-2,14,1,18,8c5,8,3,19-5,24    c0,0-105,66-181,77c-38,5-66,8-97,1s-64-23-113-56c-71-47-108-103-133-142c-9-13-16-25-22-32c-7-8-16-19-26-32    c-27-34-66-82-106-108c-29-19-50-31-69-42C766,1513,749,1505,729,1495z"></path>
		<path class="st5" d="M591,1349c113,156,352,109,566-69s322-472,209-628s-377-116-591,61c-214,178-296,479-183,636H591z"></path>
		<path d="M605,1339c3,4,6,9,10,12c49,59,122,82,204,73c85-9,181-50,275-118c17-12,34-26,51-40c106-88,185-206,223-320    c36-108,34-213-17-285c-3-4-6-8-9-12c-51-61-130-85-220-77c-93,8-196,50-293,119c-15,11-30,22-44,34c-103,86-175,201-208,315    c-33,113-26,223,28,298V1339z M588,1374c-4-5-8-9-11-14c-60-83-68-204-33-327c34-119,110-241,219-332c15-13,31-25,46-36    c102-73,212-117,310-126c101-9,191,19,250,90c4,4,7,9,11,14c59,82,62,198,22,316c-40,120-123,243-234,335c-18,15-35,28-53,41    c-99,71-201,115-292,124c-94,10-177-16-234-86L588,1374z"></path>
		<path class="st6" d="M578,1217c96,133,367,110,549-41s342-405,246-538s-403-99-585,52S482,1084,578,1217z"></path>
		<path class="st7" d="M1655,1902c0,0,2,74,92,92s164-3,201-168c8-37,47,21,120-20l-52,108l-95,38l-12,44l-34,60l-68,33l-80,5    l-62-53l-36-89l26-51V1902z"></path>
		<path d="M1925,1654c43,0,82,17,110,46c28,28,46,67,46,110s-17,82-46,110c-28,28-66,45-108,45l0,0c0,43-17,82-46,110    c-28,28-67,46-110,46c-40,0-77-20-104-47c-31-31-51-73-51-108c0-55,20-82,42-106l-62-70c-6-7-6-18,2-25l144-131c7-6,17-6,23,0l0,0    l62,55c11-9,24-17,38-23c18-8,38-12,59-12H1925z M2010,1724c-22-22-52-35-85-35c-16,0-32,3-46,9s-27,15-38,25c-6,7-17,8-25,1    l-62-55l-120,109l61,69c7,7,7,18,0,24l-1,1c-22,22-43,43-43,93c0,26,16,59,41,84c21,21,49,37,80,37c33,0,63-13,85-35s35-52,35-85    c0-3,0-6,0-8c0-3,0-5-1-7c0-2,0-4,0-5c1-10,10-16,19-15c3,0,5,1,7,1s4,0,7,0c33,0,63-13,85-35s35-52,35-85s-13-63-35-85L2010,1724    z"></path>
		<path d="M605,1339c3,4,6,9,10,12c49,59,122,82,204,73c85-9,181-50,275-118c17-12,34-26,51-40c106-88,185-206,223-320    c36-108,34-213-17-285c-3-4-6-8-9-12c-51-61-130-85-220-77c-93,8-196,50-293,119c-15,11-30,22-44,34c-103,86-175,201-208,315    c-33,113-26,223,28,298V1339z M588,1374c-4-5-8-9-11-14c-60-83-68-204-33-327c34-119,110-241,219-332c15-13,31-25,46-36    c102-73,212-117,310-126c101-9,191,19,250,90c4,4,7,9,11,14c59,82,62,198,22,316c-40,120-123,243-234,335c-18,15-35,28-53,41    c-99,71-201,115-292,124c-94,10-177-16-234-86L588,1374z"></path>
		<path class="st2" d="M527,837c-74,0-134-62-134-138s60-138,134-138c7,0,15,1,22,2c-1-7-2-15-2-22c0-76,60-138,134-138    s134,62,134,138c0,39-16,74-41,99c61,70,200,226,220,247c26,26-1,62-1,62s-21,46-51,67c-31,21-59,2-59,2L624,794    C600,821,565,837,527,837z"></path>
		<path d="M527,854c-42,0-80-17-107-46c-27-28-44-67-44-110s17-81,44-110c27-28,65-46,107-46h2v-3c0-43,17-81,44-110    c27-28,65-46,107-46s80,17,107,46c27,28,44,67,44,110c0,21-4,42-12,61l0,0c-6,14-14,27-23,39c31,35,76,86,115,130    c44,50,84,94,94,104c33,33,8,74,2,83c-4,8-25,51-57,73c-40,28-78,2-78,2c-1,0-1-1-2-1L623,816c-11,10-24,18-38,24    c-18,8-39,13-60,13L527,854z M445,784c21,22,50,35,82,35c16,0,32-3,46-10c15-6,28-16,39-28c6-7,17-8,24-1l258,223c4,2,20,10,38-3    c27-18,45-59,45-60l0,0c1-1,1-2,2-3c0,0,18-24,2-40c-10-10-50-55-95-106c-46-51-95-107-125-142l0,0c-6-7-6-17,1-24    c11-11,20-25,27-40c6-14,9-30,9-47c0-33-13-64-34-85c-21-22-50-35-82-35s-61,13-82,35s-34,52-34,85c0,3,0,7,0,10s1,6,1,9    c0,2,0,4,0,6c-2,10-11,16-20,14c-3,0-6-1-9-1l0,0c-3,0-6,0-9,0c-32,0-61,13-82,35s-34,52-34,85s13,64,34,85L445,784z"></path>
		<path class="st7" d="M417,642c0,0-5,73,93,93s156-25,156-25l311,277l-74,42L750,899L634,799l-114,38l-91-41l-35-92l12-48l11-15v2    V642z"></path>
		<path d="M527,854c-42,0-80-17-107-46c-27-28-44-67-44-110s17-81,44-110c27-28,65-46,107-46h2v-3c0-43,17-81,44-110    c27-28,65-46,107-46s80,17,107,46c27,28,44,67,44,110c0,21-4,42-12,61l0,0c-6,14-14,27-23,39c31,35,76,86,115,130    c44,50,84,94,94,104c33,33,8,74,2,83c-4,8-25,51-57,73c-40,28-78,2-78,2c-1,0-1-1-2-1L623,816c-11,10-24,18-38,24    c-18,8-39,13-60,13L527,854z M445,784c21,22,50,35,82,35c16,0,32-3,46-10c15-6,28-16,39-28c6-7,17-8,24-1l258,223c4,2,20,10,38-3    c27-18,45-59,45-60l0,0c1-1,1-2,2-3c0,0,18-24,2-40c-10-10-50-55-95-106c-46-51-95-107-125-142l0,0c-6-7-6-17,1-24    c11-11,20-25,27-40c6-14,9-30,9-47c0-33-13-64-34-85c-21-22-50-35-82-35s-61,13-82,35s-34,52-34,85c0,3,0,7,0,10s1,6,1,9    c0,2,0,4,0,6c-2,10-11,16-20,14c-3,0-6-1-9-1l0,0c-3,0-6,0-9,0c-32,0-61,13-82,35s-34,52-34,85s13,64,34,85L445,784z"></path>
	</g>
</g>
</svg>
