<svg width="128" height="97" viewBox="0 0 128 97" fill="none" xmlns="http://www.w3.org/2000/svg">
<g id="Shibariumtech">
<mask id="mask0_502_271" style="mask-type:luminance" maskUnits="userSpaceOnUse" x="0" y="0" width="128" height="97">
<g id="clip0_343_1460">
<path id="Vector" d="M127.428 0.5H0.571289V96.5H127.428V0.5Z" fill="white"/>
</g>
</mask>
<g mask="url(#mask0_502_271)">
<path id="Vector_2" d="M124.196 39.5C122.996 39.5 121.95 40.1188 121.35 41.0457H103.347L99.3778 44.9514H82.5713C82.9609 46.0896 83.3166 47.2722 83.6394 48.5H100.871L104.836 44.5943H121.347C121.945 45.5248 122.994 46.1458 124.194 46.1458C126.06 46.1458 127.571 44.6576 127.571 42.823C127.571 40.9883 126.06 39.5 124.196 39.5Z" fill="#6FBB3F"/>
<path id="Vector_3" d="M109.465 56.0922C110.086 56.9427 111.063 57.5 112.174 57.5C114.051 57.5 115.571 55.9325 115.571 54C115.571 52.0675 114.05 50.5 112.174 50.5C110.878 50.5 109.766 51.256 109.193 52.3544H84.5713C84.8046 53.566 85.0145 54.8127 85.2063 56.0922H109.465Z" fill="#6FBB3F"/>
<path id="Vector_4" d="M85.3124 59.5497V59.5545C85.3124 59.5545 85.3174 59.5545 85.321 59.5545C85.2425 60.7438 84.9865 61.9095 84.5713 63.0197H101.063L105.142 66.9647H116.29C116.894 67.8852 117.952 68.5 119.163 68.5C121.046 68.5 122.571 67.0238 122.571 65.2041C122.571 63.3845 121.045 61.9084 119.163 61.9084C117.952 61.9084 116.894 62.5244 116.29 63.4449H106.653L102.573 59.5H85.3063C85.305 59.5165 85.3063 59.5332 85.3063 59.5497H85.3149H85.3124Z" fill="#6FBB3F"/>
<path id="Vector_5" d="M82.715 66.5445C80.0026 70.324 76.6326 73.5428 72.787 76.0559C72.694 76.1174 72.5999 76.1706 72.5069 76.2309C72.1268 76.4744 71.7452 76.7133 71.3566 76.9424C70.9632 77.1776 70.5708 77.3982 70.1774 77.6141C70.1484 77.6298 70.1181 77.6467 70.0891 77.6624C67.7681 78.9262 65.4456 79.8693 63.2114 80.5265C63.0847 80.5651 62.9604 80.6085 62.8324 80.6459C62.6743 80.6917 62.5126 80.7243 62.3532 80.7677C62.1069 80.8329 61.862 80.8955 61.6182 80.9547C61.2584 81.0415 60.8987 81.1222 60.5354 81.1959C60.288 81.2465 60.0453 81.2899 59.8015 81.3321C59.5107 81.3828 59.2197 81.4347 58.9276 81.4756C58.4979 81.5384 58.079 81.5867 57.6639 81.6276C57.5419 81.6397 57.4199 81.6553 57.2981 81.6662C56.7513 81.7132 56.2177 81.7434 55.7012 81.7543C55.6445 81.7554 55.5877 81.7626 55.531 81.7639V81.7699H55.5285C55.4719 81.7711 55.4114 81.7675 55.3548 81.7675H55.3294C55.3186 81.7675 55.3088 81.7699 55.2981 81.7699V81.7675H55.2883V81.7711H55.2051C55.1991 81.7711 55.1906 81.7711 55.1846 81.7711V81.7651C48.8415 81.677 40.0639 78.9287 32.6357 71.8375C30.9205 70.1997 29.2765 68.3317 27.752 66.2104C26.3614 64.2652 25.5491 61.9689 25.4054 59.5823H25.4139C25.4139 59.5823 25.4224 59.5799 25.426 59.5787C25.3535 58.632 25.3861 57.6805 25.525 56.741C26.2081 51.2708 27.6795 45.9282 29.8908 40.8776C27.9741 36.4251 26.6644 31.7351 25.9969 26.9329C25.5684 23.2463 25.7241 19.4642 27.1484 16.3637C27.4755 15.6642 28.2408 15.2795 28.9988 15.4351C30.2771 15.6835 32.4691 16.4903 35.5193 18.9059C38.6769 21.5229 41.522 24.4968 43.9964 27.7663C47.6115 26.6048 51.3909 26.0308 55.1882 26.067V26.0621C55.2413 26.0621 55.3004 26.067 55.3596 26.067C55.4188 26.067 55.4719 26.0621 55.531 26.0621V26.067C59.2245 26.0357 62.9 26.5771 66.427 27.671C68.8762 24.4438 71.6874 21.5097 74.8075 18.924C77.8674 16.4891 80.063 15.6823 81.3449 15.4351C82.103 15.2795 82.8682 15.6642 83.1965 16.3649C84.6269 19.48 84.7802 23.2787 84.3421 26.9835C83.7059 31.5554 82.4832 36.0259 80.7063 40.2866C80.6811 40.347 80.6581 40.4084 80.6327 40.4688C80.8778 40.9717 81.1096 41.4914 81.3364 42.0173H89.9777L96.3087 35.6955H100.996C101.591 36.6326 102.632 37.2585 103.826 37.2585C105.682 37.2585 107.184 35.7559 107.184 33.9035C107.184 32.0511 105.68 30.5484 103.826 30.5484C102.632 30.5484 101.591 31.1755 100.996 32.1126H94.8241L88.4918 38.4342H85.4465C86.6909 34.8598 87.5974 31.1755 88.1213 27.4261L88.1309 27.349C88.72 22.3574 88.225 18.0919 86.651 14.6669L86.6535 14.6621C85.747 12.7361 83.8121 11.5048 81.6817 11.5C81.3257 11.5 80.9708 11.5338 80.622 11.6037C78.1233 12.0873 75.3676 13.5164 72.4308 15.8548L72.3706 15.903C69.697 18.1208 67.2333 20.5774 65.0087 23.2438C62.0007 22.5274 58.9203 22.1657 55.8279 22.1657H54.8489C51.6661 22.1657 48.4951 22.5516 45.4062 23.3162C43.1564 20.6136 40.6626 18.1244 37.9551 15.8789L37.8948 15.8307C34.2483 12.9424 31.46 11.9426 29.7713 11.6134C27.274 11.1008 24.7536 12.3743 23.6866 14.6874C22.1259 18.069 21.6286 22.3068 22.2007 27.2754L22.2128 27.3671C22.8489 31.9485 24.0318 36.4372 25.735 40.7377C23.7711 45.6725 22.4301 50.8342 21.7433 56.1006C21.5888 57.1631 21.5381 58.2389 21.5924 59.3109C21.5851 59.4473 21.5851 59.5847 21.5924 59.7222C21.6045 59.9176 21.6189 60.1118 21.637 60.3047C21.9135 63.2063 22.9527 65.9837 24.6486 68.3558C26.1731 70.4759 27.8811 72.4585 29.7532 74.2795L29.9657 74.4883C30.1298 74.645 30.294 74.797 30.4594 74.9477L30.5692 75.0478C30.5692 75.0478 30.8384 75.2999 30.9084 75.3637C31.0231 75.4674 31.1389 75.5675 31.2548 75.6688L31.5686 75.9439C31.6664 76.0306 31.7654 76.1174 31.8656 76.2032C31.9658 76.2888 32.0442 76.3514 32.1335 76.425L32.4305 76.671C32.5632 76.7819 32.6972 76.8917 32.83 77.0003C32.9036 77.0582 33.302 77.3657 33.302 77.3657C33.4661 77.4972 33.6363 77.6273 33.8077 77.7563L34.0998 77.9686C34.3292 78.1387 34.5585 78.3075 34.7878 78.4691L35.0244 78.6332C35.2755 78.808 35.5278 78.9828 35.7825 79.1518L35.9756 79.2759C36.2424 79.4508 36.5091 79.6221 36.7734 79.7873L36.9376 79.8885C37.2153 80.0586 37.4916 80.2274 37.774 80.3915L37.9045 80.4639C38.1942 80.6278 38.4839 80.7931 38.7783 80.957L38.8761 81.0089C39.1767 81.1729 39.4772 81.3297 39.7729 81.4816L39.8755 81.5324C40.1761 81.6843 40.4779 81.8326 40.7797 81.9749L40.8738 82.0172C41.178 82.1607 41.4821 82.2993 41.7778 82.4283L41.8793 82.4705C42.1798 82.602 42.4815 82.7298 42.7786 82.8505L42.8823 82.8914C43.1805 83.0121 43.4798 83.129 43.7682 83.2376L43.8938 83.2822C44.1835 83.3895 44.4744 83.4945 44.7665 83.5958L44.9126 83.644C45.1914 83.7381 45.469 83.8309 45.7455 83.9177L45.9168 83.9684C46.1848 84.0504 46.4516 84.1324 46.7171 84.2071L46.9198 84.2626C47.1745 84.3338 47.4292 84.4038 47.6791 84.4677L47.9351 84.5292C48.168 84.5871 48.4021 84.6437 48.6363 84.6932L48.9164 84.7534C49.136 84.8017 49.3557 84.8488 49.5742 84.8909L49.9545 84.9609C50.1367 84.9946 50.3189 85.0297 50.5 85.0599L50.9937 85.137C51.1337 85.1587 51.2738 85.1804 51.4114 85.1998C51.5115 85.2141 51.9449 85.2684 51.9449 85.2684C52.0656 85.2841 52.1874 85.2997 52.3082 85.3143C52.4289 85.3288 53.1868 85.3963 53.1868 85.3963C53.3244 85.4083 53.4585 85.4155 53.5985 85.424L54.0524 85.4542C54.2117 85.4626 54.3687 85.4674 54.5255 85.4734L54.8344 85.4843C54.9492 85.4951 55.065 85.5 55.181 85.5H55.5285C55.6432 85.5 55.7555 85.494 55.8678 85.4855C57.5334 85.4397 59.192 85.2588 60.8287 84.9477L60.9326 84.9284C61.2404 84.8705 61.5506 84.8066 61.8631 84.7378L61.9151 84.727C68.1736 83.3027 73.9892 80.3722 78.8548 76.1898C81.1711 74.2471 83.2521 72.0449 85.0855 69.6451H86.0113L92.2808 75.9088H106.383C106.978 76.8459 108.019 77.4718 109.213 77.4718C111.068 77.4718 112.571 75.9692 112.571 74.1168C112.571 72.2644 111.067 70.7617 109.213 70.7617C108.019 70.7617 106.978 71.3888 106.383 72.3259H93.7631L87.4936 66.062H83.0614C83.0264 66.1127 82.9962 66.1645 82.9599 66.2152C82.8803 66.3286 82.7958 66.437 82.715 66.5492V66.5445Z" fill="#6FBB3F"/>
<path id="Vector_6" d="M76.5713 32.5C74.8471 30.4492 72.8177 28.7546 70.5713 27.5C72.8154 28.7571 74.8449 30.4517 76.5713 32.5Z" fill="#6FBB3F"/>
<path id="Vector_7" d="M43.5713 63.5V63.4967C41.4357 61.4174 39.0021 60.1849 36.5713 59.5C39.0008 60.186 41.4357 61.4185 43.5713 63.5Z" fill="#6FBB3F"/>
<path id="Vector_8" d="M34.1898 22.125C31.9134 20.0588 30.141 18.896 29.1376 18.5C27.6525 23.1335 29.3768 30.4287 30.9944 35.5C31.5348 34.7055 32.1185 33.9423 32.741 33.2137C34.6552 30.9742 36.9749 29.1318 39.5713 27.786C37.5879 25.4243 35.7687 23.5593 34.191 22.1261L34.1898 22.125Z" fill="#E65D02"/>
<path id="Vector_9" d="M80.9987 18.5C79.2963 19.1805 75.4109 22.0576 70.5713 27.851C72.984 29.0774 75.1646 30.7341 77.0186 32.739C77.2553 32.9955 77.4898 33.2557 77.716 33.522H77.7182C78.2474 34.1463 78.7542 34.8037 79.2384 35.5C80.4376 31.6296 81.6523 26.5999 81.567 22.3776C81.5386 20.9714 81.3647 19.6544 80.9987 18.5Z" fill="#E65D02"/>
<path id="Vector_10" d="M81.5784 41.9518C81.3524 41.428 81.1193 40.9127 80.8739 40.413C80.8993 40.353 80.9223 40.2919 80.9477 40.232C82.7264 35.9976 83.9515 31.5547 84.5872 27.0111C85.0257 23.3293 84.8723 19.5539 83.4405 16.4582C83.1129 15.7618 82.3457 15.3807 81.5868 15.5341C80.3048 15.7786 78.1057 16.5816 75.0426 19.0014C71.9202 21.571 69.1049 24.4882 66.6531 27.6943C63.1224 26.6073 59.4431 26.0703 55.7456 26.1002V26.0955C55.6876 26.0955 55.6333 26.1002 55.5741 26.1002C55.5148 26.1002 55.4569 26.0955 55.4024 26.0955V26.1002C51.6011 26.0643 47.8177 26.6335 44.1988 27.7889C41.7218 24.5385 38.8737 21.5842 35.7128 18.9834C32.6593 16.5828 30.465 15.7822 29.1854 15.5341C28.4278 15.3795 27.6617 15.7618 27.333 16.457C25.9072 19.5384 25.7513 23.2957 26.1803 26.9607C26.8473 31.732 28.1583 36.3931 30.0783 40.8193C27.8635 45.8387 26.3917 51.148 25.7078 56.5846C25.5689 57.5181 25.5362 58.4638 25.6087 59.4046C27.5493 58.7754 32.46 57.5409 37.3826 59.1733C39.6205 59.9139 41.8607 61.2455 43.8266 63.4951C43.8266 63.4964 43.8291 63.4976 43.8304 63.4987C45.1692 58.2301 50.0266 54.5962 55.5027 54.7663H55.5112C57.4626 54.7317 59.3948 55.1475 61.1553 55.9804C62.6475 56.7595 63.9405 57.831 64.9663 59.1133C64.9917 59.1446 65.0123 59.1806 65.0377 59.2117C65.2659 59.5029 65.4847 59.8013 65.6853 60.1118C65.7227 60.1693 65.7518 60.2329 65.788 60.2904C65.9681 60.5816 66.1432 60.8752 66.2979 61.1808C66.3486 61.2803 66.3861 61.387 66.4345 61.4889C66.5625 61.7609 66.6918 62.0318 66.7982 62.3135C66.8574 62.4693 66.8985 62.6323 66.9516 62.7916C67.0302 63.0266 67.116 63.259 67.1787 63.5C73.5732 56.1734 82.8798 58.5597 85.5357 59.4465C85.5368 59.4298 85.5357 59.413 85.5357 59.3963C85.6058 58.4566 85.5732 57.5121 85.4305 56.5797H85.4341C85.4064 56.3916 85.3738 56.2105 85.3448 56.0248C85.155 54.8059 84.946 53.6182 84.7165 52.464C84.4542 51.154 84.163 49.8909 83.8428 48.6671C83.5202 47.4351 83.1674 46.2486 82.7795 45.1063C82.4085 44.0145 82.011 42.9586 81.5748 41.9518H81.5784ZM33.3505 33.4854C32.7089 34.2154 32.1071 34.98 31.5501 35.7759C31.5501 35.7759 31.5501 35.7759 31.5489 35.7782C29.879 30.6941 28.1039 23.3844 29.6349 18.7449C30.6716 19.1416 32.4974 20.3066 34.844 22.3776C36.4703 23.8134 38.3458 25.6819 40.3902 28.0479C37.7137 29.3961 35.3249 31.2419 33.3505 33.4854ZM49.2859 52.3285C48.4788 53.9513 41.8933 52.2039 38.6272 49.9759C38.1753 49.6643 37.9071 49.1525 37.9095 48.6071L38.2393 45.9944C38.2393 45.5546 38.5983 45.1985 39.0417 45.1985C39.1384 45.1985 39.2351 45.2165 39.3256 45.2501C42.1701 46.3121 50.1958 49.9544 49.2859 52.3285ZM50.5087 43.5122C50.1414 44.1391 49.4358 44.4914 48.7095 44.4099H48.7072C47.1048 44.2853 43.7445 43.9498 42.6981 43.3014C41.2989 42.4408 41.8812 38.451 46.9116 39.0082C50.7444 39.4325 51.2108 42.0298 50.5087 43.5122ZM60.7928 43.5122C60.0908 42.0298 60.5572 39.4325 64.39 39.0082C69.4191 38.451 70.0014 42.4408 68.6021 43.3014C67.5545 43.9498 64.1955 44.2853 62.5932 44.4112H62.5908C61.8645 44.4891 61.1601 44.1391 60.7928 43.5122ZM72.6586 49.9735C69.3925 52.2003 62.8058 53.949 61.9998 52.3262C61.09 49.952 69.1157 46.3097 71.9602 45.2478C72.052 45.213 72.1498 45.195 72.2489 45.195C72.6924 45.195 73.0513 45.5522 73.0513 45.992L73.3811 48.6049V48.6071C73.4258 49.1621 73.1431 49.6943 72.6586 49.9735ZM79.3418 35.4271C78.8476 34.7427 78.3316 34.0979 77.7904 33.4854H77.7879C77.5571 33.2242 77.3191 32.9689 77.0762 32.7172C75.1828 30.7528 72.9582 29.1277 70.4957 27.922C75.4341 22.2399 79.401 19.4173 81.1387 18.7485C81.512 19.8811 81.6884 21.1731 81.7174 22.5527C81.8056 26.6959 80.5671 31.6314 79.3418 35.4271Z" fill="#F68D36"/>
<path id="Vector_11" d="M63.0509 72.3572C63.0705 71.6713 63.2401 70.9986 63.5502 70.3859C63.5624 70.3591 63.5696 70.3297 63.5709 70.298C63.5782 70.1561 63.4684 70.0337 63.3267 70.0276C62.5017 70.0081 60.7404 69.9727 60.3803 69.9947H57.2606C56.9652 69.5117 56.5123 69.1447 55.9789 68.9577V66.858C58.7668 66.501 59.7188 64.4967 59.991 62.6698C60.0801 62.0693 60.0959 61.4873 60.0789 60.9895C60.0521 60.1591 59.3721 59.5 58.5422 59.5H51.5985C50.7685 59.5 50.0885 60.1591 50.0605 60.9895C50.0044 62.6208 50.2985 65.1644 52.3991 66.3151C52.8836 66.5792 53.4635 66.77 54.1567 66.858L54.1604 66.8605V68.9577C53.627 69.1447 53.1741 69.5117 52.8788 69.9947H49.759C49.399 69.9714 47.6389 70.0093 46.8126 70.0276C46.7833 70.0289 46.7539 70.0375 46.7259 70.0484C46.5965 70.106 46.5367 70.2563 46.5917 70.3872C46.898 70.9999 47.069 71.6713 47.0909 72.356C47.1152 72.565 47.2959 72.7216 47.507 72.713H47.9416L48.9498 75.379C48.9595 75.4046 48.9741 75.4277 48.9924 75.4461C49.0645 75.517 49.178 75.517 49.2513 75.4461C49.4478 75.2212 49.6235 74.9778 49.7748 74.721C49.8079 74.6672 49.8262 74.6061 49.8262 74.5424V71.4938H49.831V71.4902C51.5459 71.7336 53.2767 71.8558 55.0086 71.8558H55.1137C56.3402 71.8595 57.5645 71.7812 58.7864 71.6638C59.2941 71.6149 59.8031 71.577 60.3083 71.5074H60.312V74.5401C60.312 74.6036 60.3291 74.6648 60.3633 74.7185C60.5158 74.9766 60.6916 75.2199 60.8893 75.4461C60.9211 75.4803 60.9662 75.4987 61.0127 75.5C61.0907 75.5 61.1591 75.4499 61.1848 75.3765L62.1929 72.7106H62.6348C62.6873 72.7119 62.7372 72.7044 62.7849 72.6874C62.9252 72.6373 63.0302 72.5113 63.0497 72.3547L63.0509 72.3572Z" fill="#202740"/>
<path id="Vector_12" d="M85.5628 59.2437V59.2388H85.5543C82.8968 58.3419 73.5846 55.9276 67.1863 63.3379C67.1222 63.0942 67.0364 62.8592 66.9589 62.6215C66.9057 62.4616 66.8646 62.2955 66.8054 62.138C66.6977 61.8532 66.5684 61.5792 66.4414 61.3041C66.393 61.2011 66.3556 61.0932 66.3047 60.9926C66.1501 60.6835 65.9747 60.3854 65.7946 60.0921C65.7583 60.0327 65.7292 59.9697 65.6919 59.9115C65.4911 59.5964 65.2723 59.2958 65.0438 59.0013C65.0183 58.9685 64.9978 58.9334 64.9725 58.902C63.9459 57.6062 62.6521 56.5214 61.159 55.7337C59.3963 54.8913 57.4629 54.4708 55.5114 54.5059H55.503C50.0234 54.3326 45.163 58.0086 43.8234 63.3366L43.8198 63.333V63.3366C41.8527 61.0604 39.6123 59.7127 37.373 58.9624C32.4461 57.3117 27.5336 58.5601 25.5918 59.1965C25.5918 59.1965 25.5834 59.1988 25.5798 59.2001H25.5713C25.714 61.5974 26.5289 63.9063 27.9217 65.8613C29.4488 67.9933 31.0955 69.8718 32.8136 71.5166C40.253 78.6432 49.0466 81.4054 55.4003 81.4939V81.5C55.4063 81.5 55.4148 81.5 55.4208 81.5H55.5042V81.4962H55.5138V81.4987C55.5247 81.4987 55.5344 81.4975 55.5453 81.4962H55.5707C55.6275 81.4962 55.688 81.5 55.7448 81.5L55.7473 81.4987V81.4926C55.804 81.4915 55.8608 81.4854 55.9177 81.483C56.4352 81.472 56.9707 81.4418 57.5173 81.3945C57.6394 81.3836 57.7616 81.3678 57.8836 81.3558C58.2996 81.3145 58.7191 81.266 59.1496 81.203C59.4421 81.1606 59.7335 81.1096 60.025 81.0588C60.2692 81.0151 60.5122 80.9715 60.76 80.9218C61.1228 80.849 61.4843 80.7666 61.8445 80.6794C62.0888 80.6212 62.3342 80.557 62.5808 80.4916C62.7404 80.448 62.9025 80.4152 63.0609 80.3691C63.1878 80.3316 63.3136 80.2879 63.4405 80.2492C65.6785 79.5885 68.0035 78.6407 70.3298 77.3706C70.3588 77.3548 70.389 77.3379 70.418 77.3221C70.8123 77.1052 71.2064 76.8833 71.5994 76.647C71.9886 76.4167 72.3719 76.1756 72.7515 75.9319C72.8447 75.8713 72.939 75.818 73.0321 75.7562C76.8841 73.2303 80.2598 69.9955 82.9766 66.197C83.0576 66.0843 83.1423 65.9753 83.2221 65.8613C83.2583 65.8115 83.2886 65.7583 83.3237 65.7073C83.9511 64.7983 84.4578 63.8191 84.8313 62.7888C85.2424 61.6532 85.494 60.4606 85.5713 59.2437C85.5713 59.2437 85.5664 59.2437 85.5628 59.2437ZM57.3239 73.8328C57.2658 73.8133 57.2017 73.8012 57.128 73.8012C56.55 73.8012 56.4086 75.5271 55.5779 75.5817V75.5853C55.5779 75.5853 55.573 75.5853 55.5695 75.5828C55.5659 75.5828 55.561 75.5805 55.561 75.5805C55.5562 75.5805 55.5489 75.5841 55.5442 75.5841L55.5429 75.5805C55.5308 75.5805 55.5187 75.5756 55.5066 75.572H55.5006C54.7062 75.4592 54.5478 73.8012 53.9966 73.8012C53.4209 73.8012 53.369 74.5042 52.8286 74.5042C52.756 74.5018 52.6834 74.4933 52.6121 74.4775C52.1889 74.3502 51.9012 73.9563 51.9108 73.5127V73.0013H59.2209V73.5127C59.2294 73.9563 58.9428 74.3502 58.5196 74.4775C58.4483 74.4933 58.3757 74.5029 58.3031 74.5042C58.2354 74.5042 58.1762 74.4933 58.1219 74.4739C57.7978 74.3587 57.6745 73.9478 57.3286 73.8315L57.3239 73.8328ZM63.0572 72.6449H62.6195L61.6208 75.2872C61.5955 75.3599 61.5266 75.4083 61.4504 75.4096C61.4044 75.4071 61.3597 75.3889 61.3283 75.3562C61.1324 75.1333 60.9584 74.892 60.8072 74.635C60.7745 74.5818 60.7576 74.5211 60.7564 74.4582V71.4524H60.7528C60.2522 71.5202 59.748 71.5578 59.245 71.6063C58.0359 71.7213 56.8233 71.8002 55.607 71.7966H55.503C53.7873 71.7966 52.0728 71.6753 50.3741 71.4342V71.4378H50.3693V74.4593C50.3693 74.5224 50.3523 74.5829 50.3185 74.6363C50.1686 74.892 49.9945 75.132 49.7998 75.355C49.7285 75.4242 49.6148 75.4253 49.5435 75.355C49.5241 75.3357 49.5096 75.3139 49.5012 75.2883L48.5024 72.6462H48.0721C47.8641 72.6547 47.684 72.5007 47.6597 72.2922C47.638 71.6135 47.47 70.9469 47.1653 70.3409C47.1096 70.2112 47.1701 70.0621 47.2982 70.0052C47.3261 69.9942 47.3538 69.9857 47.3842 69.9846C48.2026 69.9675 49.9461 69.9288 50.3029 69.9518H53.3932C53.6858 69.4731 54.1343 69.1095 54.6626 68.924V66.8455H54.659C53.9723 66.7557 53.3967 66.5667 52.918 66.3048C50.8373 65.1643 50.5446 62.6433 50.6014 61.0265C50.628 60.2036 51.3027 59.5503 52.1248 59.5503H59.0033C59.8254 59.5503 60.4988 60.2036 60.5254 61.0265C60.5424 61.5198 60.5254 62.0967 60.4383 62.6918C60.1688 64.5027 59.2256 66.4891 56.4642 66.8431V68.924C56.9926 69.1095 57.4412 69.4731 57.7337 69.9518H60.8241C61.1807 69.93 62.9254 69.9652 63.7428 69.9846C63.8842 69.9918 63.9919 70.1118 63.9846 70.2524C63.9834 70.2827 63.9761 70.313 63.964 70.3409C63.657 70.9469 63.4888 71.6135 63.4696 72.2935C63.4502 72.4485 63.3462 72.5723 63.2071 72.6231C63.1613 72.6401 63.1104 72.6473 63.0585 72.6462L63.0572 72.6449Z" fill="white"/>
<path id="Vector_13" d="M57.8996 74.6421C58.3047 74.5436 58.5803 74.2389 58.5711 73.8957V73.5H51.5715V73.8967C51.5633 74.2398 51.8378 74.5446 52.243 74.643C52.3112 74.6552 52.3807 74.6627 52.4501 74.6637C52.9677 74.6637 53.0174 74.1208 53.5685 74.1199C54.0964 74.1199 54.2481 75.4025 55.0086 75.4897H55.0146C55.0261 75.4935 55.0377 75.4953 55.0492 75.4963V75.4991C55.0539 75.4991 55.0619 75.4963 55.0666 75.4963C55.0666 75.4963 55.0724 75.4963 55.0747 75.4982C55.0781 75.4982 55.0828 75.5 55.0828 75.5V75.4972C55.8782 75.4541 56.0147 74.1199 56.567 74.1199C56.6364 74.1199 56.699 74.1282 56.7545 74.1442C57.0856 74.2342 57.2037 74.5521 57.5141 74.6411C57.5661 74.6562 57.6228 74.6646 57.6876 74.6646C57.7571 74.6627 57.8266 74.6562 57.8949 74.644L57.8996 74.6421Z" fill="#202740"/>
<path id="Vector_14" d="M73.2212 46.2185C73.2212 45.822 72.8452 45.5 72.3808 45.5C72.2771 45.5 72.1745 45.5162 72.0784 45.5475C69.0992 46.5047 60.6932 49.788 61.6461 51.9282C62.4902 53.391 69.389 51.8159 72.8099 49.8074C73.3186 49.5546 73.6122 49.076 73.5667 48.5758V48.5736L73.2212 46.2185Z" fill="#202740"/>
<path id="Vector_15" d="M38.9321 45.5465C38.845 45.5162 38.7521 45.5 38.6592 45.5C38.2331 45.5 37.8882 45.821 37.8882 46.2176L37.5713 48.5731C37.569 49.0648 37.8268 49.5262 38.261 49.8072C41.3993 51.8149 47.727 53.3913 48.5026 51.9283C49.3769 49.7877 41.6652 46.5038 38.9321 45.5465Z" fill="#202740"/>
<path id="Vector_16" d="M46.5864 38.5583C41.4075 37.9468 40.8079 42.3255 42.2484 43.2699C43.327 43.9815 46.7855 44.3497 48.4351 44.4879H48.4376C49.1853 44.5747 49.9118 44.1881 50.29 43.5001C51.0127 41.873 50.5325 39.024 46.5864 38.5583Z" fill="white"/>
<path id="Vector_17" d="M62.4692 44.4889C63.9357 44.3494 67.0114 43.981 67.9693 43.2707C69.25 42.3261 68.7168 37.9467 64.1139 38.5583C60.6057 39.024 60.1789 41.8749 60.8214 43.5023C61.1576 44.1889 61.8024 44.5757 62.467 44.4876L62.4692 44.4889Z" fill="white"/>
</g>
</g>
</svg>
